<?xml version="1.0" encoding="UTF-8" standalone="no"?>
<!DOCTYPE svg PUBLIC "-//W3C//DTD SVG 1.1//EN"
 "http://www.w3.org/Graphics/SVG/1.1/DTD/svg11.dtd">
<!-- Generated by graphviz version 7.1.0 (20230121.1956)
 -->
<!-- Title: Blockchain Structure Pages: 1 -->
<svg width="242pt" height="2492pt"
 viewBox="0.00 0.00 242.00 2492.00" xmlns="http://www.w3.org/2000/svg" xmlns:xlink="http://www.w3.org/1999/xlink">
<g id="graph0" class="graph" transform="scale(1 1) rotate(0) translate(4 2488)">
<title>Blockchain Structure</title>
<polygon fill="white" stroke="none" points="-4,4 -4,-2488 238,-2488 238,4 -4,4"/>
<!-- B0 -->
<g id="node1" class="node">
<title>B0</title>
<polygon fill="none" stroke="black" points="162,-2484 108,-2484 108,-2448 162,-2448 162,-2484"/>
<text text-anchor="middle" x="135" y="-2461" font-family="Times New Roman,serif" font-size="20.00">B0</text>
</g>
<!-- B1 -->
<g id="node2" class="node">
<title>B1</title>
<polygon fill="none" stroke="red" points="162,-2412 108,-2412 108,-2376 162,-2376 162,-2412"/>
<text text-anchor="middle" x="135" y="-2390.3" font-family="Times New Roman,serif" font-size="14.00">B1</text>
</g>
<!-- B0&#45;&gt;B1 -->
<g id="edge1" class="edge">
<title>B0&#45;&gt;B1</title>
<path fill="none" stroke="black" d="M135,-2447.7C135,-2440.41 135,-2431.73 135,-2423.54"/>
<polygon fill="black" stroke="black" points="138.5,-2423.62 135,-2413.62 131.5,-2423.62 138.5,-2423.62"/>
</g>
<!-- B2 -->
<g id="node3" class="node">
<title>B2</title>
<polygon fill="none" stroke="red" points="162,-2340 108,-2340 108,-2304 162,-2304 162,-2340"/>
<text text-anchor="middle" x="135" y="-2318.3" font-family="Times New Roman,serif" font-size="14.00">B2</text>
</g>
<!-- B1&#45;&gt;B2 -->
<g id="edge2" class="edge">
<title>B1&#45;&gt;B2</title>
<path fill="none" stroke="black" d="M135,-2375.7C135,-2368.41 135,-2359.73 135,-2351.54"/>
<polygon fill="black" stroke="black" points="138.5,-2351.62 135,-2341.62 131.5,-2351.62 138.5,-2351.62"/>
</g>
<!-- B3 -->
<g id="node4" class="node">
<title>B3</title>
<polygon fill="none" stroke="red" points="126,-2268 72,-2268 72,-2232 126,-2232 126,-2268"/>
<text text-anchor="middle" x="99" y="-2246.3" font-family="Times New Roman,serif" font-size="14.00">B3</text>
</g>
<!-- B2&#45;&gt;B3 -->
<g id="edge3" class="edge">
<title>B2&#45;&gt;B3</title>
<path fill="none" stroke="black" d="M126.1,-2303.7C122.13,-2295.98 117.37,-2286.71 112.94,-2278.11"/>
<polygon fill="black" stroke="black" points="116.17,-2276.74 108.49,-2269.45 109.95,-2279.94 116.17,-2276.74"/>
</g>
<!-- B4 -->
<g id="node5" class="node">
<title>B4</title>
<polygon fill="none" stroke="blue" points="198,-2268 144,-2268 144,-2232 198,-2232 198,-2268"/>
<text text-anchor="middle" x="171" y="-2246.3" font-family="Times New Roman,serif" font-size="14.00">B4</text>
</g>
<!-- B2&#45;&gt;B4 -->
<g id="edge4" class="edge">
<title>B2&#45;&gt;B4</title>
<path fill="none" stroke="black" d="M143.9,-2303.7C147.87,-2295.98 152.63,-2286.71 157.06,-2278.11"/>
<polygon fill="black" stroke="black" points="160.05,-2279.94 161.51,-2269.45 153.83,-2276.74 160.05,-2279.94"/>
</g>
<!-- B5 -->
<g id="node6" class="node">
<title>B5</title>
<polygon fill="none" stroke="blue" points="198,-2196 144,-2196 144,-2160 198,-2160 198,-2196"/>
<text text-anchor="middle" x="171" y="-2174.3" font-family="Times New Roman,serif" font-size="14.00">B5</text>
</g>
<!-- B4&#45;&gt;B5 -->
<g id="edge5" class="edge">
<title>B4&#45;&gt;B5</title>
<path fill="none" stroke="black" d="M171,-2231.7C171,-2224.41 171,-2215.73 171,-2207.54"/>
<polygon fill="black" stroke="black" points="174.5,-2207.62 171,-2197.62 167.5,-2207.62 174.5,-2207.62"/>
</g>
<!-- B6 -->
<g id="node7" class="node">
<title>B6</title>
<polygon fill="none" stroke="blue" points="198,-2124 144,-2124 144,-2088 198,-2088 198,-2124"/>
<text text-anchor="middle" x="171" y="-2102.3" font-family="Times New Roman,serif" font-size="14.00">B6</text>
</g>
<!-- B5&#45;&gt;B6 -->
<g id="edge6" class="edge">
<title>B5&#45;&gt;B6</title>
<path fill="none" stroke="black" d="M171,-2159.7C171,-2152.41 171,-2143.73 171,-2135.54"/>
<polygon fill="black" stroke="black" points="174.5,-2135.62 171,-2125.62 167.5,-2135.62 174.5,-2135.62"/>
</g>
<!-- B7 -->
<g id="node8" class="node">
<title>B7</title>
<polygon fill="none" stroke="blue" points="162,-2052 108,-2052 108,-2016 162,-2016 162,-2052"/>
<text text-anchor="middle" x="135" y="-2030.3" font-family="Times New Roman,serif" font-size="14.00">B7</text>
</g>
<!-- B6&#45;&gt;B7 -->
<g id="edge7" class="edge">
<title>B6&#45;&gt;B7</title>
<path fill="none" stroke="black" d="M162.1,-2087.7C158.13,-2079.98 153.37,-2070.71 148.94,-2062.11"/>
<polygon fill="black" stroke="black" points="152.17,-2060.74 144.49,-2053.45 145.95,-2063.94 152.17,-2060.74"/>
</g>
<!-- B9 -->
<g id="node23" class="node">
<title>B9</title>
<polygon fill="none" stroke="red" points="234,-2052 180,-2052 180,-2016 234,-2016 234,-2052"/>
<text text-anchor="middle" x="207" y="-2030.3" font-family="Times New Roman,serif" font-size="14.00">B9</text>
</g>
<!-- B6&#45;&gt;B9 -->
<g id="edge22" class="edge">
<title>B6&#45;&gt;B9</title>
<path fill="none" stroke="black" d="M179.9,-2087.7C183.87,-2079.98 188.63,-2070.71 193.06,-2062.11"/>
<polygon fill="black" stroke="black" points="196.05,-2063.94 197.51,-2053.45 189.83,-2060.74 196.05,-2063.94"/>
</g>
<!-- B8 -->
<g id="node9" class="node">
<title>B8</title>
<polygon fill="none" stroke="blue" points="162,-1980 108,-1980 108,-1944 162,-1944 162,-1980"/>
<text text-anchor="middle" x="135" y="-1958.3" font-family="Times New Roman,serif" font-size="14.00">B8</text>
</g>
<!-- B7&#45;&gt;B8 -->
<g id="edge8" class="edge">
<title>B7&#45;&gt;B8</title>
<path fill="none" stroke="black" d="M135,-2015.7C135,-2008.41 135,-1999.73 135,-1991.54"/>
<polygon fill="black" stroke="black" points="138.5,-1991.62 135,-1981.62 131.5,-1991.62 138.5,-1991.62"/>
</g>
<!-- B10 -->
<g id="node10" class="node">
<title>B10</title>
<polygon fill="none" stroke="blue" points="162,-1908 108,-1908 108,-1872 162,-1872 162,-1908"/>
<text text-anchor="middle" x="135" y="-1886.3" font-family="Times New Roman,serif" font-size="14.00">B10</text>
</g>
<!-- B8&#45;&gt;B10 -->
<g id="edge9" class="edge">
<title>B8&#45;&gt;B10</title>
<path fill="none" stroke="black" d="M135,-1943.7C135,-1936.41 135,-1927.73 135,-1919.54"/>
<polygon fill="black" stroke="black" points="138.5,-1919.62 135,-1909.62 131.5,-1919.62 138.5,-1919.62"/>
</g>
<!-- B11 -->
<g id="node11" class="node">
<title>B11</title>
<polygon fill="none" stroke="blue" points="162,-1836 108,-1836 108,-1800 162,-1800 162,-1836"/>
<text text-anchor="middle" x="135" y="-1814.3" font-family="Times New Roman,serif" font-size="14.00">B11</text>
</g>
<!-- B10&#45;&gt;B11 -->
<g id="edge10" class="edge">
<title>B10&#45;&gt;B11</title>
<path fill="none" stroke="black" d="M135,-1871.7C135,-1864.41 135,-1855.73 135,-1847.54"/>
<polygon fill="black" stroke="black" points="138.5,-1847.62 135,-1837.62 131.5,-1847.62 138.5,-1847.62"/>
</g>
<!-- B12 -->
<g id="node12" class="node">
<title>B12</title>
<polygon fill="none" stroke="blue" points="162,-1764 108,-1764 108,-1728 162,-1728 162,-1764"/>
<text text-anchor="middle" x="135" y="-1742.3" font-family="Times New Roman,serif" font-size="14.00">B12</text>
</g>
<!-- B11&#45;&gt;B12 -->
<g id="edge11" class="edge">
<title>B11&#45;&gt;B12</title>
<path fill="none" stroke="black" d="M135,-1799.7C135,-1792.41 135,-1783.73 135,-1775.54"/>
<polygon fill="black" stroke="black" points="138.5,-1775.62 135,-1765.62 131.5,-1775.62 138.5,-1775.62"/>
</g>
<!-- B13 -->
<g id="node13" class="node">
<title>B13</title>
<polygon fill="none" stroke="blue" points="162,-1692 108,-1692 108,-1656 162,-1656 162,-1692"/>
<text text-anchor="middle" x="135" y="-1670.3" font-family="Times New Roman,serif" font-size="14.00">B13</text>
</g>
<!-- B12&#45;&gt;B13 -->
<g id="edge12" class="edge">
<title>B12&#45;&gt;B13</title>
<path fill="none" stroke="black" d="M135,-1727.7C135,-1720.41 135,-1711.73 135,-1703.54"/>
<polygon fill="black" stroke="black" points="138.5,-1703.62 135,-1693.62 131.5,-1703.62 138.5,-1703.62"/>
</g>
<!-- B14 -->
<g id="node14" class="node">
<title>B14</title>
<polygon fill="none" stroke="blue" points="162,-1620 108,-1620 108,-1584 162,-1584 162,-1620"/>
<text text-anchor="middle" x="135" y="-1598.3" font-family="Times New Roman,serif" font-size="14.00">B14</text>
</g>
<!-- B13&#45;&gt;B14 -->
<g id="edge13" class="edge">
<title>B13&#45;&gt;B14</title>
<path fill="none" stroke="black" d="M135,-1655.7C135,-1648.41 135,-1639.73 135,-1631.54"/>
<polygon fill="black" stroke="black" points="138.5,-1631.62 135,-1621.62 131.5,-1631.62 138.5,-1631.62"/>
</g>
<!-- B15 -->
<g id="node15" class="node">
<title>B15</title>
<polygon fill="none" stroke="blue" points="126,-1548 72,-1548 72,-1512 126,-1512 126,-1548"/>
<text text-anchor="middle" x="99" y="-1526.3" font-family="Times New Roman,serif" font-size="14.00">B15</text>
</g>
<!-- B14&#45;&gt;B15 -->
<g id="edge14" class="edge">
<title>B14&#45;&gt;B15</title>
<path fill="none" stroke="black" d="M126.1,-1583.7C122.13,-1575.98 117.37,-1566.71 112.94,-1558.11"/>
<polygon fill="black" stroke="black" points="116.17,-1556.74 108.49,-1549.45 109.95,-1559.94 116.17,-1556.74"/>
</g>
<!-- B16 -->
<g id="node24" class="node">
<title>B16</title>
<polygon fill="none" stroke="red" points="198,-1548 144,-1548 144,-1512 198,-1512 198,-1548"/>
<text text-anchor="middle" x="171" y="-1526.3" font-family="Times New Roman,serif" font-size="14.00">B16</text>
</g>
<!-- B14&#45;&gt;B16 -->
<g id="edge23" class="edge">
<title>B14&#45;&gt;B16</title>
<path fill="none" stroke="black" d="M143.9,-1583.7C147.87,-1575.98 152.63,-1566.71 157.06,-1558.11"/>
<polygon fill="black" stroke="black" points="160.05,-1559.94 161.51,-1549.45 153.83,-1556.74 160.05,-1559.94"/>
</g>
<!-- B17 -->
<g id="node16" class="node">
<title>B17</title>
<polygon fill="none" stroke="blue" points="126,-1476 72,-1476 72,-1440 126,-1440 126,-1476"/>
<text text-anchor="middle" x="99" y="-1454.3" font-family="Times New Roman,serif" font-size="14.00">B17</text>
</g>
<!-- B15&#45;&gt;B17 -->
<g id="edge15" class="edge">
<title>B15&#45;&gt;B17</title>
<path fill="none" stroke="black" d="M99,-1511.7C99,-1504.41 99,-1495.73 99,-1487.54"/>
<polygon fill="black" stroke="black" points="102.5,-1487.62 99,-1477.62 95.5,-1487.62 102.5,-1487.62"/>
</g>
<!-- B18 -->
<g id="node17" class="node">
<title>B18</title>
<polygon fill="none" stroke="blue" points="126,-1404 72,-1404 72,-1368 126,-1368 126,-1404"/>
<text text-anchor="middle" x="99" y="-1382.3" font-family="Times New Roman,serif" font-size="14.00">B18</text>
</g>
<!-- B17&#45;&gt;B18 -->
<g id="edge16" class="edge">
<title>B17&#45;&gt;B18</title>
<path fill="none" stroke="black" d="M99,-1439.7C99,-1432.41 99,-1423.73 99,-1415.54"/>
<polygon fill="black" stroke="black" points="102.5,-1415.62 99,-1405.62 95.5,-1415.62 102.5,-1415.62"/>
</g>
<!-- B19 -->
<g id="node18" class="node">
<title>B19</title>
<polygon fill="none" stroke="red" points="90,-1332 36,-1332 36,-1296 90,-1296 90,-1332"/>
<text text-anchor="middle" x="63" y="-1310.3" font-family="Times New Roman,serif" font-size="14.00">B19</text>
</g>
<!-- B18&#45;&gt;B19 -->
<g id="edge17" class="edge">
<title>B18&#45;&gt;B19</title>
<path fill="none" stroke="black" d="M90.1,-1367.7C86.13,-1359.98 81.37,-1350.71 76.94,-1342.11"/>
<polygon fill="black" stroke="black" points="80.17,-1340.74 72.49,-1333.45 73.95,-1343.94 80.17,-1340.74"/>
</g>
<!-- B20 -->
<g id="node25" class="node">
<title>B20</title>
<polygon fill="none" stroke="blue" points="162,-1332 108,-1332 108,-1296 162,-1296 162,-1332"/>
<text text-anchor="middle" x="135" y="-1310.3" font-family="Times New Roman,serif" font-size="14.00">B20</text>
</g>
<!-- B18&#45;&gt;B20 -->
<g id="edge24" class="edge">
<title>B18&#45;&gt;B20</title>
<path fill="none" stroke="black" d="M107.9,-1367.7C111.87,-1359.98 116.63,-1350.71 121.06,-1342.11"/>
<polygon fill="black" stroke="black" points="124.05,-1343.94 125.51,-1333.45 117.83,-1340.74 124.05,-1343.94"/>
</g>
<!-- B22 -->
<g id="node19" class="node">
<title>B22</title>
<polygon fill="none" stroke="red" points="90,-1260 36,-1260 36,-1224 90,-1224 90,-1260"/>
<text text-anchor="middle" x="63" y="-1238.3" font-family="Times New Roman,serif" font-size="14.00">B22</text>
</g>
<!-- B19&#45;&gt;B22 -->
<g id="edge18" class="edge">
<title>B19&#45;&gt;B22</title>
<path fill="none" stroke="black" d="M63,-1295.7C63,-1288.41 63,-1279.73 63,-1271.54"/>
<polygon fill="black" stroke="black" points="66.5,-1271.62 63,-1261.62 59.5,-1271.62 66.5,-1271.62"/>
</g>
<!-- B23 -->
<g id="node20" class="node">
<title>B23</title>
<polygon fill="none" stroke="red" points="90,-1188 36,-1188 36,-1152 90,-1152 90,-1188"/>
<text text-anchor="middle" x="63" y="-1166.3" font-family="Times New Roman,serif" font-size="14.00">B23</text>
</g>
<!-- B22&#45;&gt;B23 -->
<g id="edge19" class="edge">
<title>B22&#45;&gt;B23</title>
<path fill="none" stroke="black" d="M63,-1223.7C63,-1216.41 63,-1207.73 63,-1199.54"/>
<polygon fill="black" stroke="black" points="66.5,-1199.62 63,-1189.62 59.5,-1199.62 66.5,-1199.62"/>
</g>
<!-- B24 -->
<g id="node21" class="node">
<title>B24</title>
<polygon fill="none" stroke="red" points="90,-1116 36,-1116 36,-1080 90,-1080 90,-1116"/>
<text text-anchor="middle" x="63" y="-1094.3" font-family="Times New Roman,serif" font-size="14.00">B24</text>
</g>
<!-- B23&#45;&gt;B24 -->
<g id="edge20" class="edge">
<title>B23&#45;&gt;B24</title>
<path fill="none" stroke="black" d="M63,-1151.7C63,-1144.41 63,-1135.73 63,-1127.54"/>
<polygon fill="black" stroke="black" points="66.5,-1127.62 63,-1117.62 59.5,-1127.62 66.5,-1127.62"/>
</g>
<!-- B25 -->
<g id="node22" class="node">
<title>B25</title>
<polygon fill="none" stroke="red" points="54,-1044 0,-1044 0,-1008 54,-1008 54,-1044"/>
<text text-anchor="middle" x="27" y="-1022.3" font-family="Times New Roman,serif" font-size="14.00">B25</text>
</g>
<!-- B24&#45;&gt;B25 -->
<g id="edge21" class="edge">
<title>B24&#45;&gt;B25</title>
<path fill="none" stroke="black" d="M54.1,-1079.7C50.13,-1071.98 45.37,-1062.71 40.94,-1054.11"/>
<polygon fill="black" stroke="black" points="44.17,-1052.74 36.49,-1045.45 37.95,-1055.94 44.17,-1052.74"/>
</g>
<!-- B26 -->
<g id="node27" class="node">
<title>B26</title>
<polygon fill="none" stroke="blue" points="126,-1044 72,-1044 72,-1008 126,-1008 126,-1044"/>
<text text-anchor="middle" x="99" y="-1022.3" font-family="Times New Roman,serif" font-size="14.00">B26</text>
</g>
<!-- B24&#45;&gt;B26 -->
<g id="edge26" class="edge">
<title>B24&#45;&gt;B26</title>
<path fill="none" stroke="black" d="M71.9,-1079.7C75.87,-1071.98 80.63,-1062.71 85.06,-1054.11"/>
<polygon fill="black" stroke="black" points="88.05,-1055.94 89.51,-1045.45 81.83,-1052.74 88.05,-1055.94"/>
</g>
<!-- B21 -->
<g id="node26" class="node">
<title>B21</title>
<polygon fill="none" stroke="blue" points="162,-1260 108,-1260 108,-1224 162,-1224 162,-1260"/>
<text text-anchor="middle" x="135" y="-1238.3" font-family="Times New Roman,serif" font-size="14.00">B21</text>
</g>
<!-- B20&#45;&gt;B21 -->
<g id="edge25" class="edge">
<title>B20&#45;&gt;B21</title>
<path fill="none" stroke="black" d="M135,-1295.7C135,-1288.41 135,-1279.73 135,-1271.54"/>
<polygon fill="black" stroke="black" points="138.5,-1271.62 135,-1261.62 131.5,-1271.62 138.5,-1271.62"/>
</g>
<!-- B27 -->
<g id="node28" class="node">
<title>B27</title>
<polygon fill="none" stroke="blue" points="126,-972 72,-972 72,-936 126,-936 126,-972"/>
<text text-anchor="middle" x="99" y="-950.3" font-family="Times New Roman,serif" font-size="14.00">B27</text>
</g>
<!-- B26&#45;&gt;B27 -->
<g id="edge27" class="edge">
<title>B26&#45;&gt;B27</title>
<path fill="none" stroke="black" d="M99,-1007.7C99,-1000.41 99,-991.73 99,-983.54"/>
<polygon fill="black" stroke="black" points="102.5,-983.62 99,-973.62 95.5,-983.62 102.5,-983.62"/>
</g>
<!-- B28 -->
<g id="node29" class="node">
<title>B28</title>
<polygon fill="none" stroke="blue" points="126,-900 72,-900 72,-864 126,-864 126,-900"/>
<text text-anchor="middle" x="99" y="-878.3" font-family="Times New Roman,serif" font-size="14.00">B28</text>
</g>
<!-- B27&#45;&gt;B28 -->
<g id="edge28" class="edge">
<title>B27&#45;&gt;B28</title>
<path fill="none" stroke="black" d="M99,-935.7C99,-928.41 99,-919.73 99,-911.54"/>
<polygon fill="black" stroke="black" points="102.5,-911.62 99,-901.62 95.5,-911.62 102.5,-911.62"/>
</g>
<!-- B29 -->
<g id="node30" class="node">
<title>B29</title>
<polygon fill="none" stroke="blue" points="126,-828 72,-828 72,-792 126,-792 126,-828"/>
<text text-anchor="middle" x="99" y="-806.3" font-family="Times New Roman,serif" font-size="14.00">B29</text>
</g>
<!-- B28&#45;&gt;B29 -->
<g id="edge29" class="edge">
<title>B28&#45;&gt;B29</title>
<path fill="none" stroke="black" d="M99,-863.7C99,-856.41 99,-847.73 99,-839.54"/>
<polygon fill="black" stroke="black" points="102.5,-839.62 99,-829.62 95.5,-839.62 102.5,-839.62"/>
</g>
<!-- B30 -->
<g id="node31" class="node">
<title>B30</title>
<polygon fill="none" stroke="blue" points="90,-756 36,-756 36,-720 90,-720 90,-756"/>
<text text-anchor="middle" x="63" y="-734.3" font-family="Times New Roman,serif" font-size="14.00">B30</text>
</g>
<!-- B29&#45;&gt;B30 -->
<g id="edge30" class="edge">
<title>B29&#45;&gt;B30</title>
<path fill="none" stroke="black" d="M90.1,-791.7C86.13,-783.98 81.37,-774.71 76.94,-766.11"/>
<polygon fill="black" stroke="black" points="80.17,-764.74 72.49,-757.45 73.95,-767.94 80.17,-764.74"/>
</g>
<!-- B31 -->
<g id="node34" class="node">
<title>B31</title>
<polygon fill="none" stroke="blue" points="162,-756 108,-756 108,-720 162,-720 162,-756"/>
<text text-anchor="middle" x="135" y="-734.3" font-family="Times New Roman,serif" font-size="14.00">B31</text>
</g>
<!-- B29&#45;&gt;B31 -->
<g id="edge33" class="edge">
<title>B29&#45;&gt;B31</title>
<path fill="none" stroke="black" d="M107.9,-791.7C111.87,-783.98 116.63,-774.71 121.06,-766.11"/>
<polygon fill="black" stroke="black" points="124.05,-767.94 125.51,-757.45 117.83,-764.74 124.05,-767.94"/>
</g>
<!-- B32 -->
<g id="node32" class="node">
<title>B32</title>
<polygon fill="none" stroke="blue" points="90,-684 36,-684 36,-648 90,-648 90,-684"/>
<text text-anchor="middle" x="63" y="-662.3" font-family="Times New Roman,serif" font-size="14.00">B32</text>
</g>
<!-- B30&#45;&gt;B32 -->
<g id="edge31" class="edge">
<title>B30&#45;&gt;B32</title>
<path fill="none" stroke="black" d="M63,-719.7C63,-712.41 63,-703.73 63,-695.54"/>
<polygon fill="black" stroke="black" points="66.5,-695.62 63,-685.62 59.5,-695.62 66.5,-695.62"/>
</g>
<!-- B34 -->
<g id="node33" class="node">
<title>B34</title>
<polygon fill="none" stroke="blue" points="54,-612 0,-612 0,-576 54,-576 54,-612"/>
<text text-anchor="middle" x="27" y="-590.3" font-family="Times New Roman,serif" font-size="14.00">B34</text>
</g>
<!-- B32&#45;&gt;B34 -->
<g id="edge32" class="edge">
<title>B32&#45;&gt;B34</title>
<path fill="none" stroke="black" d="M54.1,-647.7C50.13,-639.98 45.37,-630.71 40.94,-622.11"/>
<polygon fill="black" stroke="black" points="44.17,-620.74 36.49,-613.45 37.95,-623.94 44.17,-620.74"/>
</g>
<!-- B35 -->
<g id="node36" class="node">
<title>B35</title>
<polygon fill="none" stroke="blue" points="126,-612 72,-612 72,-576 126,-576 126,-612"/>
<text text-anchor="middle" x="99" y="-590.3" font-family="Times New Roman,serif" font-size="14.00">B35</text>
</g>
<!-- B32&#45;&gt;B35 -->
<g id="edge35" class="edge">
<title>B32&#45;&gt;B35</title>
<path fill="none" stroke="black" d="M71.9,-647.7C75.87,-639.98 80.63,-630.71 85.06,-622.11"/>
<polygon fill="black" stroke="black" points="88.05,-623.94 89.51,-613.45 81.83,-620.74 88.05,-623.94"/>
</g>
<!-- B33 -->
<g id="node35" class="node">
<title>B33</title>
<polygon fill="none" stroke="blue" points="162,-684 108,-684 108,-648 162,-648 162,-684"/>
<text text-anchor="middle" x="135" y="-662.3" font-family="Times New Roman,serif" font-size="14.00">B33</text>
</g>
<!-- B31&#45;&gt;B33 -->
<g id="edge34" class="edge">
<title>B31&#45;&gt;B33</title>
<path fill="none" stroke="black" d="M135,-719.7C135,-712.41 135,-703.73 135,-695.54"/>
<polygon fill="black" stroke="black" points="138.5,-695.62 135,-685.62 131.5,-695.62 138.5,-695.62"/>
</g>
<!-- B36 -->
<g id="node37" class="node">
<title>B36</title>
<polygon fill="none" stroke="blue" points="126,-540 72,-540 72,-504 126,-504 126,-540"/>
<text text-anchor="middle" x="99" y="-518.3" font-family="Times New Roman,serif" font-size="14.00">B36</text>
</g>
<!-- B35&#45;&gt;B36 -->
<g id="edge36" class="edge">
<title>B35&#45;&gt;B36</title>
<path fill="none" stroke="black" d="M99,-575.7C99,-568.41 99,-559.73 99,-551.54"/>
<polygon fill="black" stroke="black" points="102.5,-551.62 99,-541.62 95.5,-551.62 102.5,-551.62"/>
</g>
<!-- B37 -->
<g id="node38" class="node">
<title>B37</title>
<polygon fill="none" stroke="blue" points="126,-468 72,-468 72,-432 126,-432 126,-468"/>
<text text-anchor="middle" x="99" y="-446.3" font-family="Times New Roman,serif" font-size="14.00">B37</text>
</g>
<!-- B36&#45;&gt;B37 -->
<g id="edge37" class="edge">
<title>B36&#45;&gt;B37</title>
<path fill="none" stroke="black" d="M99,-503.7C99,-496.41 99,-487.73 99,-479.54"/>
<polygon fill="black" stroke="black" points="102.5,-479.62 99,-469.62 95.5,-479.62 102.5,-479.62"/>
</g>
<!-- B38 -->
<g id="node39" class="node">
<title>B38</title>
<polygon fill="none" stroke="red" points="90,-396 36,-396 36,-360 90,-360 90,-396"/>
<text text-anchor="middle" x="63" y="-374.3" font-family="Times New Roman,serif" font-size="14.00">B38</text>
</g>
<!-- B37&#45;&gt;B38 -->
<g id="edge38" class="edge">
<title>B37&#45;&gt;B38</title>
<path fill="none" stroke="black" d="M90.1,-431.7C86.13,-423.98 81.37,-414.71 76.94,-406.11"/>
<polygon fill="black" stroke="black" points="80.17,-404.74 72.49,-397.45 73.95,-407.94 80.17,-404.74"/>
</g>
<!-- B39 -->
<g id="node40" class="node">
<title>B39</title>
<polygon fill="none" stroke="blue" points="162,-396 108,-396 108,-360 162,-360 162,-396"/>
<text text-anchor="middle" x="135" y="-374.3" font-family="Times New Roman,serif" font-size="14.00">B39</text>
</g>
<!-- B37&#45;&gt;B39 -->
<g id="edge39" class="edge">
<title>B37&#45;&gt;B39</title>
<path fill="none" stroke="black" d="M107.9,-431.7C111.87,-423.98 116.63,-414.71 121.06,-406.11"/>
<polygon fill="black" stroke="black" points="124.05,-407.94 125.51,-397.45 117.83,-404.74 124.05,-407.94"/>
</g>
<!-- B40 -->
<g id="node41" class="node">
<title>B40</title>
<polygon fill="none" stroke="blue" points="126,-324 72,-324 72,-288 126,-288 126,-324"/>
<text text-anchor="middle" x="99" y="-302.3" font-family="Times New Roman,serif" font-size="14.00">B40</text>
</g>
<!-- B39&#45;&gt;B40 -->
<g id="edge40" class="edge">
<title>B39&#45;&gt;B40</title>
<path fill="none" stroke="black" d="M126.1,-359.7C122.13,-351.98 117.37,-342.71 112.94,-334.11"/>
<polygon fill="black" stroke="black" points="116.17,-332.74 108.49,-325.45 109.95,-335.94 116.17,-332.74"/>
</g>
<!-- B41 -->
<g id="node42" class="node">
<title>B41</title>
<polygon fill="none" stroke="blue" points="198,-324 144,-324 144,-288 198,-288 198,-324"/>
<text text-anchor="middle" x="171" y="-302.3" font-family="Times New Roman,serif" font-size="14.00">B41</text>
</g>
<!-- B39&#45;&gt;B41 -->
<g id="edge41" class="edge">
<title>B39&#45;&gt;B41</title>
<path fill="none" stroke="black" d="M143.9,-359.7C147.87,-351.98 152.63,-342.71 157.06,-334.11"/>
<polygon fill="black" stroke="black" points="160.05,-335.94 161.51,-325.45 153.83,-332.74 160.05,-335.94"/>
</g>
<!-- B42 -->
<g id="node43" class="node">
<title>B42</title>
<polygon fill="none" stroke="blue" points="198,-252 144,-252 144,-216 198,-216 198,-252"/>
<text text-anchor="middle" x="171" y="-230.3" font-family="Times New Roman,serif" font-size="14.00">B42</text>
</g>
<!-- B41&#45;&gt;B42 -->
<g id="edge42" class="edge">
<title>B41&#45;&gt;B42</title>
<path fill="none" stroke="black" d="M171,-287.7C171,-280.41 171,-271.73 171,-263.54"/>
<polygon fill="black" stroke="black" points="174.5,-263.62 171,-253.62 167.5,-263.62 174.5,-263.62"/>
</g>
<!-- B43 -->
<g id="node44" class="node">
<title>B43</title>
<polygon fill="none" stroke="blue" points="198,-180 144,-180 144,-144 198,-144 198,-180"/>
<text text-anchor="middle" x="171" y="-158.3" font-family="Times New Roman,serif" font-size="14.00">B43</text>
</g>
<!-- B42&#45;&gt;B43 -->
<g id="edge43" class="edge">
<title>B42&#45;&gt;B43</title>
<path fill="none" stroke="black" d="M171,-215.7C171,-208.41 171,-199.73 171,-191.54"/>
<polygon fill="black" stroke="black" points="174.5,-191.62 171,-181.62 167.5,-191.62 174.5,-191.62"/>
</g>
<!-- B44 -->
<g id="node45" class="node">
<title>B44</title>
<polygon fill="none" stroke="blue" points="198,-108 144,-108 144,-72 198,-72 198,-108"/>
<text text-anchor="middle" x="171" y="-86.3" font-family="Times New Roman,serif" font-size="14.00">B44</text>
</g>
<!-- B43&#45;&gt;B44 -->
<g id="edge44" class="edge">
<title>B43&#45;&gt;B44</title>
<path fill="none" stroke="black" d="M171,-143.7C171,-136.41 171,-127.73 171,-119.54"/>
<polygon fill="black" stroke="black" points="174.5,-119.62 171,-109.62 167.5,-119.62 174.5,-119.62"/>
</g>
<!-- B45 -->
<g id="node46" class="node">
<title>B45</title>
<polygon fill="none" stroke="blue" points="198,-36 144,-36 144,0 198,0 198,-36"/>
<text text-anchor="middle" x="171" y="-14.3" font-family="Times New Roman,serif" font-size="14.00">B45</text>
</g>
<!-- B44&#45;&gt;B45 -->
<g id="edge45" class="edge">
<title>B44&#45;&gt;B45</title>
<path fill="none" stroke="black" d="M171,-71.7C171,-64.41 171,-55.73 171,-47.54"/>
<polygon fill="black" stroke="black" points="174.5,-47.62 171,-37.62 167.5,-47.62 174.5,-47.62"/>
</g>
</g>
</svg>
